<svg xmlns="http://www.w3.org/2000/svg" width="550.66" height="549.18" viewBox="0 0 550.66 549.18"><g id="レイヤー_1" data-name="レイヤー 1"><line x1="103.43" y1="107.7" x2="271.55" y2="34.46" fill="none" stroke="#bfddff" stroke-miterlimit="10"/><line x1="271.55" y1="34.46" x2="271.55" fill="none" stroke="#bfddff" stroke-miterlimit="10"/><g id="_1人で読書" data-name="1人で読書"><rect x="147.81" y="51.99" width="93.04" height="29.17" rx="14.59" fill="#fff"/><text transform="translate(157.07 72.27)" font-size="16" fill="#4b5563" font-family="GenEiLateGo_v2, GenEi LateGo v2"><tspan letter-spacing="0.25em">1</tspan><tspan x="10.53" y="0">人で読書</tspan></text></g><line x1="439.67" y1="107.7" x2="271.55" y2="34.46" fill="none" stroke="#bfddff" stroke-miterlimit="10"/><line x1="439.67" y1="208.02" x2="271.55" y2="281.26" fill="none" stroke="#bfddff" stroke-miterlimit="10"/><text transform="translate(364.12 347.42)" font-size="24" font-family="GenEiLateGo_v2, GenEi LateGo v2">見られていると<tspan x="12" y="32">疲れてしまう</tspan></text><text transform="translate(17.07 250.6)" font-size="24" font-family="GenEiLateGo_v2, GenEi LateGo v2"><tspan letter-spacing="0.25em">1</tspan><tspan x="15.8" y="0">人だと続かない</tspan></text><g id="_2人で読書" data-name="2人で読書"><rect x="305.22" y="53.5" width="93.04" height="29.17" rx="14.59" fill="#fff"/><text transform="translate(314.48 73.77)" font-size="16" fill="#4b5563" font-family="GenEiLateGo_v2, GenEi LateGo v2"><tspan letter-spacing="0.25em">2</tspan><tspan x="12.8" y="0">人で読書</tspan></text></g><line x1="439.37" y1="208.47" x2="439.37" y2="107.25" fill="none" stroke="#bfddff" stroke-miterlimit="10"/><line x1="271.55" y1="467.43" x2="271.55" y2="281.1" fill="none" stroke="#bfddff" stroke-miterlimit="10"/><line x1="439.37" y1="306.19" x2="439.37" y2="204.97" fill="none" stroke="#bfddff" stroke-miterlimit="10"/><g id="矢印"><line x1="439.29" y1="306.61" x2="433.53" y2="300.69" fill="none" stroke="#bfddff" stroke-linecap="square" stroke-miterlimit="10"/><line x1="439.29" y1="306.61" x2="445.21" y2="300.84" fill="none" stroke="#bfddff" stroke-linecap="square" stroke-miterlimit="10"/></g><g id="矢印-2" data-name="矢印"><line x1="271.47" y1="467.43" x2="265.71" y2="461.91" fill="none" stroke="#bfddff" stroke-linecap="square" stroke-miterlimit="10"/><line x1="271.47" y1="467.43" x2="277.4" y2="462.06" fill="none" stroke="#bfddff" stroke-linecap="square" stroke-miterlimit="10"/></g><g id="_2人で読書-2" data-name="2人で読書"><rect x="228.92" y="366.2" width="85.27" height="29.17" rx="14.59" fill="#fff"/><text transform="translate(239.18 386.47)" font-size="16" fill="#4b5563" font-family="GenEiLateGo_v2, GenEi LateGo v2">音声のみ</text></g><g id="_2人で読書-3" data-name="2人で読書"><rect x="396.74" y="248.6" width="85.27" height="29.17" rx="14.59" fill="#fff"/><text transform="translate(407 268.87)" font-size="16" fill="#4b5563" font-family="GenEiLateGo_v2, GenEi LateGo v2">映像あり</text></g><line x1="103.81" y1="208.47" x2="103.81" y2="107.25" fill="none" stroke="#bfddff" stroke-miterlimit="10"/><g id="矢印-3" data-name="矢印"><line x1="103.74" y1="208.47" x2="97.97" y2="202.55" fill="none" stroke="#bfddff" stroke-linecap="square" stroke-miterlimit="10"/><line x1="103.74" y1="208.47" x2="109.66" y2="202.7" fill="none" stroke="#bfddff" stroke-linecap="square" stroke-miterlimit="10"/></g><rect y="219.44" width="3.4" height="16.17" fill="#1877f2"/><rect x="26.46" y="229.18" width="3.4" height="16.17" transform="translate(245.34 192.98) rotate(90)" fill="#1877f2"/><rect x="234.68" y="260.76" width="3.4" height="16.17" transform="translate(452.69 521.57) rotate(180)" fill="#1877f2"/><rect x="228.3" y="267.14" width="3.4" height="16.17" transform="translate(-65.3 489.11) rotate(-90)" fill="#1877f2"/><rect x="339.45" y="316.27" width="3.4" height="16.17" fill="#1877f2"/><rect x="365.9" y="326.02" width="3.4" height="16.17" transform="translate(681.63 -49.63) rotate(90)" fill="#1877f2"/><rect x="567.33" y="386.83" width="3.4" height="16.17" transform="translate(1117.99 773.7) rotate(180)" fill="#1877f2"/><rect x="560.95" y="393.21" width="3.4" height="16.17" transform="translate(141.29 947.82) rotate(-90)" fill="#1877f2"/></g><g id="TsundokuLogo"><rect x="129.72" y="497.33" width="12.71" height="34.2" fill="#1a2d45"/><circle cx="159.98" cy="514.43" r="13.91" fill="#1877f2"/><rect x="142.44" y="531.53" width="35.08" height="11.4" fill="#1a2d45"/><text transform="translate(184.42 537.23)" font-size="47.79" font-family="PlantinMTPro-Semibold, Plantin MT Pro" font-weight="600" style="isolation:isolate">Tsundoku</text></g></svg>