<svg id="レイヤー_1" data-name="レイヤー 1" xmlns="http://www.w3.org/2000/svg" viewBox="0 0 1389.45 228.99"><defs><style>.cls-1{fill:#1a2d45;}.cls-2{fill:#1877f2;}.cls-3{fill:#fff;}</style></defs><rect class="cls-1" width="63.85" height="171.74"/><circle class="cls-2" cx="151.93" cy="85.87" r="69.86"/><rect class="cls-1" x="138.3" y="117.8" width="57.25" height="176.15" transform="translate(-53.94 367.29) rotate(-90)"/><path class="cls-3" d="M453.59,42.19v37.2h-13c-9.6-21.84-18-28.56-43.92-28.56h-4.56v125c0,16.32,5.52,21.36,20.16,21.36h4.56v8.64H335v-8.64h4.08c15.84,0,20.64-6,20.64-21.36v-125h-4.56c-26.16,0-34.56,7-43.92,28.56h-13V42.19Z" transform="translate(-15 -5.5)"/><path class="cls-3" d="M549.59,128.83h-8.4c-9.61-18.24-18.73-25.2-31.93-25.2-9.6,0-15.84,4.8-15.84,13.2,0,7.68,4.08,11.28,11.52,14.88,12.73,6,31.21,11.28,40.09,19,6.24,5.52,11.52,10.8,11.52,23.76,0,21.12-16.32,34.32-42.25,34.32-12.72,0-23.76-2.64-37.2-8.4l-2.64-27.84h9.36c7.68,18.48,19.44,27.6,33.6,27.6,10.57,0,18.73-6.48,18.73-14.88s-5.77-12-19.2-17.76c-11.28-4.8-20.65-7.68-30-13.68C477.82,148,473,138.43,473,127.87,473,107.47,487.9,95,511.9,95A99.44,99.44,0,0,1,546,101.23Z" transform="translate(-15 -5.5)"/><path class="cls-3" d="M613.9,95v73.92c0,17,9.12,25.92,21.6,25.92,9.6,0,18.24-5,26.16-15.36v-53c0-10.08-2.64-19.92-16.8-19.92h-1.68V97.87c24.48,0,31-1.68,38.16-2.88h7v82.08c0,13.44,5,17,15.36,17H707v8.64c-10.08,0-30,3.36-38.64,6h-6.72V190c-13.44,13.44-24.48,18.72-40.56,18.72-22.56,0-33.84-14.16-33.84-36.24V125c0-9.84-3.84-18.48-16.32-18.48V97.87h7.44c9.36,0,20.88-1,28.8-2.88Z" transform="translate(-15 -5.5)"/><path class="cls-3" d="M754.54,95h7.92v19.2c13-13.68,23.76-19.2,38.16-19.2,24,0,36.24,16.8,36.24,36.24v46.56c0,13.2,3.84,19.44,17.76,19.44h.72v8.64h-61v-8.64c13.2-1,15.84-8.64,15.84-21.36v-38.4c0-17.76-7.2-26.4-21.36-26.4-9.36,0-18.72,4.8-26.4,13.2V178c0,12.72,4.08,18.72,17.28,19.2v8.64H717.1v-8.64h.72c14.64,0,18-7.2,18-21.6v-55l-18.72-8.4v-5.76Z" transform="translate(-15 -5.5)"/><path class="cls-3" d="M981.1,167.71c0,19.92,1.44,24.72,14.64,24.72a50.53,50.53,0,0,0,6-.48v7.92l-47.28,8.88V187.39c-15.12,15.6-28.32,21.36-42.72,21.36-24.72,0-43-20.88-43-51.84,0-37.2,23-61.92,58.56-61.92,4.08,0,15.84,1.44,27.12,3.84V66.67L935,58.27V52.51l38.4-13.68h7.68Zm-26.64,8.4V131.23c0-17.28-11-27.6-27.12-27.6-18,0-30.24,14.4-30.24,43.44,0,27.6,11.28,43.92,30,43.92C937.66,191,946.78,186.19,954.46,176.11Z" transform="translate(-15 -5.5)"/><path class="cls-3" d="M1069.41,208.75c-34.08,0-56.88-22.56-56.88-57.12,0-32.4,24.24-56.64,57.84-56.64s56.17,23.76,56.17,55.2C1126.54,181.87,1104.93,208.75,1069.41,208.75ZM1097,154c0-32.4-10.32-50.4-28.8-50.4-16.08,0-26.16,13.44-26.16,44.16,0,32.64,11,52.32,29,52.32Q1097,200.11,1097,154Z" transform="translate(-15 -5.5)"/><path class="cls-3" d="M1177.17,38.83h7.2V147.55c6.48-6,12.24-11,19-18,6.48-6.48,10.08-12,10.08-15.84,0-4.8-3.84-7-12.48-7.2V97.87h59.28v8.64h-1.68c-12.72,0-18.72,2.4-25.92,7s-16.56,13.44-28.08,25.68l59,50.4c0,6.48,0,11-.24,13.44a3.7,3.7,0,0,1-.72,1.68c-.48,1-1.68,1.2-7.68,1.2-8.88,0-10.56-.48-14.64-4.08l-55.92-47.52v23.52c0,14.16,5.76,19,16.56,19.44v8.64h-60.24v-8.64c13.44,0,17-7.92,17-19.44V66.67l-17-8.4V52.51Z" transform="translate(-15 -5.5)"/><path class="cls-3" d="M1311.33,95v73.92c0,17,9.12,25.92,21.6,25.92,9.6,0,18.24-5,26.16-15.36v-53c0-10.08-2.64-19.92-16.8-19.92h-1.68V97.87c24.48,0,31-1.68,38.16-2.88h7v82.08c0,13.44,5,17,15.36,17h3.36v8.64c-10.08,0-30,3.36-38.64,6h-6.72V190c-13.44,13.44-24.48,18.72-40.56,18.72-22.56,0-33.84-14.16-33.84-36.24V125c0-9.84-3.84-18.48-16.32-18.48V97.87h7.44c9.36,0,20.88-1,28.8-2.88Z" transform="translate(-15 -5.5)"/></svg>